<svg xmlns="http://www.w3.org/2000/svg" aria-hidden="true" style="position:absolute;width:0;height:0;overflow:hidden"><defs><symbol id="ball" viewBox="0 0 32 32"><path fill="#e94b88" d="M16 32C7.178 32 0 24.822 0 16S7.178 0 16 0s16 7.178 16 16-7.178 16-16 16zm13.494-13.81c-.468-.148-4.23-1.27-8.513-.584 1.788 4.912 2.515 8.913 2.655 9.744a13.689 13.689 0 0 0 5.858-9.16zm-8.156 10.411c-.203-1.199-.997-5.378-2.916-10.364l-.09.03c-7.708 2.686-10.476 8.032-10.721 8.535A13.645 13.645 0 0 0 21.338 28.6zM5.847 25.159c.31-.53 4.06-6.74 11.109-9.019.178-.058.358-.112.538-.162a45.83 45.83 0 0 0-1.108-2.319C9.561 15.702 2.938 15.616 2.34 15.604a13.615 13.615 0 0 0 3.506 9.556zM2.622 13.222c.611.008 6.242.033 12.634-1.665a87.214 87.214 0 0 0-5.067-7.904c-3.823 1.803-6.681 5.328-7.568 9.569zM12.797 2.734c.378.506 2.86 3.886 5.099 8 4.86-1.821 6.917-4.587 7.163-4.937a13.658 13.658 0 0 0-12.262-3.064zm13.782 4.644c-.288.39-2.578 3.326-7.631 5.389a42.084 42.084 0 0 1 1.201 2.685c4.547-.572 9.066.345 9.516.44a13.599 13.599 0 0 0-3.086-8.513z" style="fill:var(--color1, #e94b88)"/></symbol><symbol id="cbre" viewBox="0 0 130 32"><path fill="#8491a0" d="M58.884 15.478c4.094-1.351 4.836-4.767 4.827-7.55C63.703 3.679 60.685.003 51.752.003L35.078 0v31.934h16.631c8.987 0 12.293-4.586 12.293-9.18 0-5.563-5.118-7.276-5.118-7.276zM42.99 6.947l11.267.008c1.267.223 2.19 1.294 2.19 2.551 0 1.286-.989 2.496-2.295 2.673l-11.154.017-.008-5.249zm10.686 17.545H42.99v-5.347l10.973.003c1.362.156 2.394 1.282 2.394 2.619 0 1.457-1.221 2.702-2.681 2.725zM101.339.004h28.177l-.016 6.97h-20.332l.019 5.147h18.33v7.006h-18.33v5.57h20.335L129.518 32h-28.18V.004zM84.95.046H67.911V31.99h7.825V19.066l8.617-.01c2.468.038 4.387 2.047 4.387 4.525v8.381l7.659-.003-.015-10.31c0-4.776-4.641-6.187-4.641-6.187s4.745-1.412 4.745-7.058c0-6.908-5.973-8.359-11.537-8.359zm4.271 9.911c-.141 1.05-1.197 2.189-2.516 2.189l-10.997.004V7.035H86.71c1.313 0 2.343.962 2.51 2.225v.697zM30.003 24.271c-.113.003-10.696.206-14.349-.148-5.885-.573-7.969-4.906-7.969-8.442 0-4.409 3.024-7.654 7.709-8.264 2.229-.29 14.416-.153 14.545-.152l.256.003.026-7.264-.259.001L16.168.03c-1.536.093-4.082.247-6.689 1.307a16.341 16.341 0 0 0-6.312 5.072A15.808 15.808 0 0 0-.001 15.93c0 1.086.086 2.165.263 3.199.993 4.843 4.187 8.851 8.767 11.007 1.547.676 3.932 1.488 8.742 1.756l2.591.054 9.87.01.027-7.688-.257.003z" style="fill:var(--color2, #8491a0)"/></symbol><symbol id="epiq" viewBox="0 0 78 32"><path fill="#8491a0" d="M21.531 15.557c-1.528 4.65-5.266 7.27-10.319 7.27C4.927 22.827 0 17.84 0 11.456 0 5.158 4.926 0 10.999 0c5.648 0 11.084 4.65 11.042 12.385H3.652c.467 4.524 3.949 7.187 7.559 7.187 3.1 0 5.308-1.48 6.498-4.016h3.822zm-3.482-6.384c-.892-3.551-3.865-5.918-7.05-5.918-3.015 0-6.2 2.199-7.134 5.918h14.184zm16.69 13.654c-3.143 0-5.861-1.691-7.432-3.804V32h-3.61V.55h3.482v3.466C28.708 1.819 31.51 0 34.738 0c6.285 0 10.914 5.115 10.914 11.372 0 6.341-4.629 11.455-10.914 11.455zm0-19.529c-4.035 0-7.432 3.636-7.432 8.074 0 4.48 3.397 8.158 7.432 8.158 4.077 0 7.304-3.678 7.304-8.158 0-4.438-3.228-8.074-7.304-8.074zM47.224.55h3.61v21.77h-3.61V.55zm5.222 10.919c0-6.353 5.18-11.462 11.739-11.462s11.74 5.11 11.74 11.462c0 6.353-5.229 11.369-11.74 11.369s-11.739-5.017-11.739-11.37zm12.73-7.994c-5.976-.52-9.299 4.008-9.299 9.284 0 5.275 4.368 9.552 9.754 9.552a9.857 9.857 0 0 0 5.639-1.758l-1.352-3.427c1.397-1.449 2.204-3.451 2.204-5.663 0-4.372-3.067-7.627-6.946-7.99z" style="fill:var(--color2, #8491a0)"/><path fill="#8491a0" d="m62.029 13.657 10.65 8.625h5.666L67.97 13.657z" style="fill:var(--color2, #8491a0)"/></symbol><symbol id="F" viewBox="0 0 31 32"><path fill="#8491a0" d="M29.545 0H.368a.365.365 0 0 0-.362.304.37.37 0 0 0 .235.41l26.39 8.64c.03.01.063.009.092-.003s.054-.034.069-.062l3.938-7.305a1.341 1.341 0 0 0-.029-1.329 1.348 1.348 0 0 0-1.156-.656zM.006 30.542a.356.356 0 0 0 .67.17l5.076-9.404a1.344 1.344 0 0 1 1.185-.707h12.951a1.352 1.352 0 0 0 1.185-.707l3.87-7.175a.11.11 0 0 0-.002-.106.108.108 0 0 0-.092-.052H1.353a1.35 1.35 0 0 0-1.346 1.346v16.636z" style="fill:var(--color2, #8491a0)"/></symbol><symbol id="Fresh" viewBox="0 0 32 32"><path fill="#8491a0" d="M29.696 0H15.465C6.924 0 0 5.947 0 14.488v10.04C6.234 11.784 21.387 2.829 29.696 0z" style="fill:var(--color2, #8491a0)"/><path fill="#8491a0" d="M1.525 32h12.612c8.541 0 15.465-6.924 15.465-15.465V.739C16.435 8.05 7.425 19.43 1.525 32z" style="fill:var(--color2, #8491a0)"/></symbol><symbol id="linkedin" viewBox="0 0 32 32"><path fill="#0077b5" d="M29.6 0H2.4C1.12 0 0 .965 0 2.251v27.498C0 31.035 1.12 32 2.4 32h27.2c1.28 0 2.4-.965 2.4-2.251V2.251C32 1.125 30.88 0 29.6 0zM9.44 27.497h-4.8V12.221h4.8v15.276zM7.04 9.97c-1.6 0-2.72-1.286-2.72-2.734S5.6 4.502 7.04 4.502c1.44 0 2.72 1.286 2.72 2.734.16 1.608-1.12 2.734-2.72 2.734zM27.2 27.497h-4.8V20.1c0-1.769 0-4.02-2.4-4.02s-2.88 1.93-2.88 4.02v7.558h-4.8V12.382h4.48v2.091c.64-1.286 2.24-2.412 4.48-2.412 4.8 0 5.76 3.216 5.76 7.236v8.201h.16z" style="fill:var(--color3, #0077b5)"/></symbol><symbol id="logo" viewBox="0 0 105 32"><path fill="#fff" d="M6.48 31.6H0V0h7.24c1.493 0 2.707.08 3.64.24.96.133 1.707.427 2.24.88s.893 1.107 1.08 1.96c.213.827.32 1.947.32 3.36v3.28c0 .827-.093 1.507-.28 2.04s-.427.96-.72 1.28c-.267.32-.56.56-.88.72-.32.133-.613.227-.88.28v.16c.4.107.76.267 1.08.48.347.187.64.48.88.88s.427.933.56 1.6c.16.64.24 1.467.24 2.48V31.6H8v-14c0-.347-.04-.573-.12-.68-.08-.133-.293-.2-.64-.2h-.76V31.6zm0-19.96h.76c.347 0 .56-.053.64-.16.08-.133.12-.373.12-.72V6.44c0-.347-.04-.573-.12-.68-.08-.133-.293-.2-.64-.2h-.76v6.08zm23.222 15.28c0 1.12-.093 2.013-.28 2.68-.16.667-.48 1.187-.96 1.56-.453.347-1.093.573-1.92.68-.8.107-1.853.16-3.16.16-1.28 0-2.333-.053-3.16-.16s-1.467-.333-1.92-.68c-.453-.373-.773-.893-.96-1.56-.16-.667-.24-1.56-.24-2.68v-14.6c0-1.12.08-2.013.24-2.68.187-.667.507-1.173.96-1.52.453-.373 1.093-.613 1.92-.72s1.88-.16 3.16-.16c1.307 0 2.36.053 3.16.16.827.107 1.467.347 1.92.72.48.347.8.853.96 1.52.187.667.28 1.56.28 2.68v14.6zm-7.04-1.12c0 .347.04.587.12.72.08.107.28.16.6.16.347 0 .56-.053.64-.16.08-.133.12-.373.12-.72V13.44c0-.347-.04-.573-.12-.68-.08-.133-.293-.2-.64-.2-.32 0-.52.067-.6.2-.08.107-.12.333-.12.68V25.8zM38.298 0v8.72c.347-.48.773-.813 1.28-1 .533-.187 1.187-.28 1.96-.28s1.4.093 1.88.28c.48.16.84.427 1.08.8.267.373.44.88.52 1.52.107.613.16 1.373.16 2.28v14.6c0 .933-.053 1.72-.16 2.36-.08.613-.253 1.107-.52 1.48s-.653.64-1.16.8c-.507.16-1.16.24-1.96.24-.907 0-1.64-.093-2.2-.28-.56-.213-.987-.547-1.28-1v1.08h-5.32V0h5.72zm1.32 13.44c0-.32-.04-.547-.12-.68-.053-.133-.227-.2-.52-.2-.267 0-.467.053-.6.16-.107.08-.187.213-.24.4v13a.989.989 0 0 0 .24.44c.133.08.333.12.6.12.293 0 .467-.067.52-.2.08-.133.12-.36.12-.68V13.44zm14.189-9.28h-5.68V0h5.68v4.16zm0 27.44h-5.68V7.64h5.68V31.6zm16.264 0h-5.76V13.44c0-.32-.04-.547-.12-.68-.054-.133-.227-.2-.52-.2-.267 0-.467.053-.6.16-.107.08-.2.213-.28.4V31.6h-5.72V7.64h5.32v1.08c.293-.453.72-.773 1.28-.96.56-.213 1.293-.32 2.2-.32.8 0 1.466.08 2 .24.56.16 1 .427 1.32.8s.546.88.68 1.52c.133.613.2 1.387.2 2.32V31.6zm8.854 0h-5.8v-5.64h5.8v5.64zM104.573 0l-3.28 31.6h-8.16l-1.08-22.92h-.16l-1.32 22.92h-8.28L79.853 0h6.52l.68 22.16h.16L88.173 0h8l.68 22.16h.16l1-22.16h6.56z" style="fill:var(--color4, #fff)"/></symbol><symbol id="motion-design" viewBox="0 0 32 32"><path fill="none" stroke="#5221e6" stroke-width="2" d="M31 16c0 8.284-6.716 15-15 15S1 24.284 1 16C1 7.716 7.716 1 16 1s15 6.716 15 15z" style="stroke:var(--color5, #5221e6)"/><path fill="#5221e6" d="m21 16-7.5 4.33v-8.66L21 16z" style="fill:var(--color5, #5221e6)"/></symbol><symbol id="photography" viewBox="0 0 38 32"><path fill="#5221e6" d="M35.351 6.205h-3.47l-.797-3.596A3.312 3.312 0 0 0 27.829 0H15.782a3.312 3.312 0 0 0-3.255 2.609l-.797 3.596h-.823V4.671c0-.865-.705-1.568-1.571-1.568H4.257c-.866 0-1.571.704-1.571 1.568v1.534h-.111A2.575 2.575 0 0 0 0 8.775v17.408a2.575 2.575 0 0 0 2.575 2.57h11.94c2.102 1.359 4.605 2.149 7.291 2.149s5.189-.79 7.291-2.149h6.255a2.575 2.575 0 0 0 2.575-2.57V8.775a2.575 2.575 0 0 0-2.575-2.57zM13.974 2.929a1.841 1.841 0 0 1 1.809-1.45H27.83c.876 0 1.619.596 1.809 1.45l.726 3.277h-1.268c-2.102-1.359-4.605-2.149-7.291-2.149s-5.189.79-7.291 2.149h-1.268l.726-3.277zM4.167 4.671a.09.09 0 0 1 .089-.089h5.079a.09.09 0 0 1 .089.089v1.534H4.166V4.671zm1.782 22.603v-8.032a.74.74 0 0 0-1.482 0v8.032H2.575c-.603 0-1.093-.49-1.093-1.091V8.775c0-.602.49-1.091 1.093-1.091h10.047C10 10.135 8.359 13.619 8.359 17.479s1.641 7.344 4.263 9.795H5.949zm22.696 0a11.924 11.924 0 0 1-6.839 2.149 11.945 11.945 0 0 1-6.839-2.149c-3.096-2.161-5.126-5.746-5.126-9.795s2.03-7.634 5.126-9.795a11.924 11.924 0 0 1 6.839-2.149c1.384 0 2.714.237 3.952.67 1.034.362 2.004.863 2.887 1.479 3.096 2.161 5.126 5.746 5.126 9.795s-2.029 7.634-5.126 9.795zm7.799-1.091c0 .602-.49 1.091-1.093 1.091h-4.362c2.622-2.451 4.263-5.935 4.263-9.795s-1.641-7.344-4.263-9.795h4.362c.603 0 1.093.49 1.093 1.091v17.407z" style="fill:var(--color5, #5221e6)"/><path fill="#5221e6" d="M21.772 8.428c-5.035 0-9.13 4.096-9.13 9.13s4.096 9.13 9.13 9.13c.733 0 1.464-.087 2.17-.26a.695.695 0 0 0-.329-1.351 7.78 7.78 0 0 1-1.841.22c-4.268 0-7.739-3.472-7.739-7.739s3.472-7.739 7.739-7.739c4.268 0 7.739 3.472 7.739 7.739a7.7 7.7 0 0 1-1.328 4.337.695.695 0 1 0 1.151.781 9.083 9.083 0 0 0 1.568-5.117c0-5.035-4.096-9.13-9.13-9.13zM5.619 9.833c-1.549 0-2.809 1.26-2.809 2.809s1.26 2.809 2.809 2.809 2.809-1.26 2.809-2.809a2.812 2.812 0 0 0-2.809-2.809zm0 4.11a1.301 1.301 0 0 1 0-2.6 1.301 1.301 0 0 1 0 2.6z" style="fill:var(--color5, #5221e6)"/><path fill="#5221e6" d="M28.08 24.444c-.009-.044-.023-.088-.04-.131s-.039-.083-.065-.121a.69.69 0 0 0-.446-.3.707.707 0 0 0-.634.193.782.782 0 0 0-.152.228.682.682 0 0 0-.04.406.735.735 0 0 0 .105.252.69.69 0 0 0 .446.299.708.708 0 0 0 .406-.04.705.705 0 0 0 .42-.786z" style="fill:var(--color5, #5221e6)"/></symbol><symbol id="product-design" viewBox="0 0 32 32"><path fill="#5221e6" d="M30.222 23.111v7.111H17.778v-7.111h12.444zm0-21.333V16H17.778V1.778h12.444zM10.667 16H1.778v14.222h8.889V16zm0-14.222v7.111H1.778V1.778h8.889zM17.778 0C16.796 0 16 .796 16 1.778V16c0 .982.796 1.778 1.778 1.778h12.444c.982 0 1.778-.796 1.778-1.778V1.778C32 .796 31.204 0 30.222 0H17.778zm0 21.333c-.982 0-1.778.796-1.778 1.778v7.111c0 .982.796 1.778 1.778 1.778h12.444c.982 0 1.778-.796 1.778-1.778v-7.111c0-.982-.796-1.778-1.778-1.778H17.778zM0 16c0-.982.796-1.778 1.778-1.778h8.889c.982 0 1.778.796 1.778 1.778v14.222c0 .982-.796 1.778-1.778 1.778H1.778A1.778 1.778 0 0 1 0 30.222V16zM1.778 0C.796 0 0 .796 0 1.778v7.111c0 .982.796 1.778 1.778 1.778h8.889c.982 0 1.778-.796 1.778-1.778V1.778C12.445.796 11.649 0 10.667 0H1.778z" style="fill:var(--color5, #5221e6)"/></symbol><symbol id="twetter" viewBox="0 0 40 32"><path fill="#26a7de" d="M40 3.744c-1.379.591-2.956.985-4.729 1.182 1.576-.985 2.956-2.562 3.547-4.335-1.576.985-3.35 1.576-5.123 1.97C32.316.985 30.148-.001 27.784-.001c-4.532 0-8.079 3.547-8.079 7.882 0 .591 0 1.182.197 1.773-6.7-.394-12.611-3.547-16.749-8.276a7.106 7.106 0 0 0-1.182 3.941c0 2.759 1.379 5.123 3.547 6.699-1.379 0-2.562-.394-3.744-.985v.197c0 3.941 2.759 7.094 6.502 7.882-.591.197-1.379.197-2.167.197-.591 0-.985 0-1.576-.197.985 3.153 3.941 5.517 7.488 5.517-2.759 2.167-6.305 3.35-10.049 3.35-.591 0-1.379 0-1.97-.197 3.547 2.365 7.882 3.547 12.414 3.547 14.778 0 23.054-12.217 23.054-22.66v-.985c2.167-.985 3.547-2.365 4.532-3.941z" style="fill:var(--color6, #26a7de)"/></symbol><symbol id="visual-design" viewBox="0 0 32 32"><path fill="#5221e6" d="m17.221 1.2 13.578 13.578 1.2-1.2L18.421 0l-1.2 1.2zM19.234 7.601a2.546 2.546 0 0 0-2.803-.54L7.008 11.1a4.227 4.227 0 0 0-2.352 2.56 469.703 469.703 0 0 0-2.981 9.346A130.81 130.81 0 0 0 .5 27.045c-.148.552-.27 1.036-.355 1.427-.079.364-.144.723-.144.981v.352l2.194 2.194h.352c.259 0 .617-.065.981-.144.391-.085.875-.206 1.427-.355 1.105-.297 2.51-.709 4.039-1.175a467.62 467.62 0 0 0 9.346-2.981 4.23 4.23 0 0 0 2.56-2.352l4.039-9.423a2.546 2.546 0 0 0-.54-2.803l-5.164-5.164zm-2.135 1.021a.848.848 0 0 1 .934.18l5.164 5.164a.848.848 0 0 1 .18.934l-4.039 9.424a2.528 2.528 0 0 1-1.531 1.408 467.251 467.251 0 0 1-9.31 2.97c-1.522.464-2.906.87-3.984 1.16-.539.145-.994.258-1.347.335l-.207.043 8.671-8.672a2.547 2.547 0 0 0 2.898-4.098 2.546 2.546 0 0 0-4.098 2.898L1.758 29.04c.012-.063.027-.132.043-.207.077-.353.19-.808.335-1.347a129.78 129.78 0 0 1 1.16-3.984 467.251 467.251 0 0 1 2.97-9.31 2.528 2.528 0 0 1 1.408-1.531l9.424-4.039z" style="fill:var(--color5, #5221e6)"/></symbol></defs></svg>